<svg width="1024" height="1024" viewBox="0 0 1024 1024" fill="none" xmlns="http://www.w3.org/2000/svg">
  <defs>
    <linearGradient id="bg" x1="150" y1="96" x2="880" y2="920" gradientUnits="userSpaceOnUse">
      <stop stop-color="#087165"/>
      <stop offset="0.62" stop-color="#0EA78C"/>
      <stop offset="1" stop-color="#65D9A8"/>
    </linearGradient>
    <linearGradient id="paper" x1="270" y1="188" x2="740" y2="846" gradientUnits="userSpaceOnUse">
      <stop stop-color="#FFFFFF"/>
      <stop offset="1" stop-color="#F2FFF7"/>
    </linearGradient>
  </defs>
  <rect x="0" y="0" width="1024" height="1024" rx="248" fill="url(#bg)"/>
  <rect x="214" y="224" width="626" height="666" rx="96" fill="#063C35" fill-opacity="0.18"/>
  <path d="M284 188H652L836 372V760C836 810 796 850 746 850H284C234 850 194 810 194 760V278C194 228 234 188 284 188Z" fill="url(#paper)"/>
  <path d="M652 188V326C652 351 673 372 698 372H836L652 188Z" fill="#CDEFE1"/>
  <path d="M336 454H666" stroke="#B7DCCB" stroke-width="38" stroke-linecap="round"/>
  <circle cx="302" cy="304" r="94" fill="#EFFFF6"/>
  <path d="M302 246V362M244 304H360" stroke="#087165" stroke-width="48" stroke-linecap="round"/>
  <path d="M282 620H382L430 520L506 732L578 570L634 620H744" stroke="#087165" stroke-width="58" stroke-linecap="round" stroke-linejoin="round"/>
</svg>
